PathFileType	4	(X/Y/Z)	/Users/niels/Desktop/University/Third Semester/Perception and Action/Exam/Gymnastics Motion Tracking/Code for Gym Tracking/Analyzed Data/Webcam_Backflip/id7_4_trajectory_Sports2D/id7_4_trajectory_Sports2D_px_person00.trc
DataRate	CameraRate	NumFrames	NumMarkers	Units	OrigDataRate	OrigDataStartFrame	OrigNumFrames
29.8125	29.8125	9	22	m	29.8125	120	160
Frame#	Time	Hip			RHip			RKnee			RAnkle			RBigToe			RSmallToe			RHeel			LHip			LKnee			LAnkle			LBigToe			LSmallToe			LHeel			Neck			Head			Nose			RShoulder			RElbow			RWrist			LShoulder			LElbow			LWrist		
		X1	Y1	Z1	X2	Y2	Z2	X3	Y3	Z3	X4	Y4	Z4	X5	Y5	Z5	X6	Y6	Z6	X7	Y7	Z7	X8	Y8	Z8	X9	Y9	Z9	X10	Y10	Z10	X11	Y11	Z11	X12	Y12	Z12	X13	Y13	Z13	X14	Y14	Z14	X15	Y15	Z15	X16	Y16	Z16	X17	Y17	Z17	X18	Y18	Z18	X19	Y19	Z19	X20	Y20	Z20	X21	Y21	Z21	X22	Y22	Z22
120	4.025157232704402	0.5941048428924135	-0.6690795937828635	0.0	0.5681712891420246	-0.6750865527995293	0.0	0.6465856209275117	-0.7530705766582584	0.0	0.6048329107960674	-0.8437407635827885	0.0	0.6245152593713317	-0.8814566653803546	0.0	0.606319803983561	-0.8756993630418909	0.0	0.5954936665042282	-0.8464612404603248	0.0	0.6198983162402076	-0.6730561029187154	0.0	0.6887674644790647	-0.7430995307880713	0.0	0.6432534140381142	-0.8416512498233143	0.0	0.671421173617177	-0.8733470977544082	0.0	0.6673104461029885	-0.871360907116204	0.0	0.6307597912925069	-0.847474555668423	0.0	0.6571413496504608	-0.5354277550429599	0.0	0.6770825016891532	-0.47014563809776655	0.0	0.6750689380439533	-0.5082977285880679	0.0	0.6111418546875644	-0.546733800237234	0.0	0.618533175289497	-0.6200245372858214	0.0	0.670082213012854	-0.6603793000622858	0.0	0.6879763695379598	-0.5553472414070448	0.0	0.7184820013415522	-0.6237366455797874	0.0	0.7587520837371673	-0.66851982584608	0.0
121	4.058700209643606	0.5977443881558164	-0.6666793002968239	0.0	0.5719564654597401	-0.6727007111825899	0.0	0.6490612880200288	-0.7544409510351067	0.0	0.6053490737685204	-0.8435693769362959	0.0	0.6244451688046057	-0.8806218671419394	0.0	0.6068929193383713	-0.8752405122766496	0.0	0.595809949507234	-0.8452038107404249	0.0	0.6233388982893495	-0.6707327543566421	0.0	0.6911084696500225	-0.7440555126724586	0.0	0.6436086791719419	-0.8404758284856172	0.0	0.670583416588137	-0.8720944942840266	0.0	0.6667566960276095	-0.8690654611696548	0.0	0.630763685818315	-0.8459024165574432	0.0	0.6591364541665322	-0.530722910603874	0.0	0.6792657154711464	-0.46551630169052216	0.0	0.6772895944983756	-0.503897954851958	0.0	0.6136041476088356	-0.542112087666464	0.0	0.6262658973925207	-0.6137836142100875	0.0	0.6858314682690863	-0.6464681441512287	0.0	0.6897237344309207	-0.5495584462518205	0.0	0.7188998166915977	-0.6158888416834805	0.0	0.7574921782827471	-0.6521565850945814	0.0
122	4.092243186582809	0.601459959552376	-0.6622761594094779	0.0	0.5756948854805207	-0.6685766943797911	0.0	0.6506530603630213	-0.7535849616877196	0.0	0.6060059473905379	-0.8409004506587027	0.0	0.6242397193475582	-0.8753150375238179	0.0	0.6070842891976467	-0.8692593426279632	0.0	0.5963078495864849	-0.8416778430796692	0.0	0.626958030715565	-0.6664692643580141	0.0	0.6937477408957267	-0.7428100056598569	0.0	0.6440016171136114	-0.8373059772909237	0.0	0.6686055064563691	-0.8667435327268045	0.0	0.66553664576379	-0.862308174200799	0.0	0.6308877787716771	-0.8419302340944679	0.0	0.6601944540589072	-0.5234159884396183	0.0	0.6801038026276967	-0.4581584593653286	0.0	0.6783816532601438	-0.49674008782741086	0.0	0.6149835363079506	-0.5352979076420192	0.0	0.6321220307422039	-0.6055608365108157	0.0	0.6974155257433389	-0.631108458789872	0.0	0.690653016666073	-0.541313380540147	0.0	0.7173807923082949	-0.6060111591111693	0.0	0.7526045141316323	-0.6339930014126091	0.0
123	4.125786163522012	0.6051607221677845	-0.6558310306046451	0.0	0.5794968658023741	-0.662503454224528	0.0	0.6512273889384217	-0.7511888061398523	0.0	0.6066168735718842	-0.8369965427551475	0.0	0.6238769659923059	-0.867469027347239	0.0	0.6066239948628172	-0.8602705403061348	0.0	0.5968247663535472	-0.837380059492157	0.0	0.6305871987478454	-0.660121455709139	0.0	0.6961009566153308	-0.7401181402195476	0.0	0.6442721679617164	-0.8333263589078692	0.0	0.665902536445944	-0.8596668378465047	0.0	0.6638055337815637	-0.8539877927667817	0.0	0.6310534473791596	-0.8370354720270949	0.0	0.660488043281964	-0.5135738417177799	0.0	0.6797329662607977	-0.44807806747301576	0.0	0.6785156765268393	-0.4868517749338816	0.0	0.6154683225313884	-0.5262667138861321	0.0	0.636032877018423	-0.5954412743936951	0.0	0.7049673812081092	-0.614749964837367	0.0	0.6909348290216684	-0.5307464646128367	0.0	0.7146153864696243	-0.5944661931068111	0.0	0.7456176630191724	-0.6153243089634243	0.0
124	4.159329140461216	0.6087853486271295	-0.6474915352578725	0.0	0.5834092916570569	-0.6544253555840555	0.0	0.6507556714203776	-0.7475874588298069	0.0	0.6070537475015018	-0.8329187731889396	0.0	0.6234765892400831	-0.8592512159991841	0.0	0.6056017393132138	-0.8513671658510613	0.0	0.5972262049903603	-0.8335886777661563	0.0	0.6340850823049669	-0.6517211258443754	0.0	0.6975844135433517	-0.736453408624296	0.0	0.6443389224307279	-0.829395307803444	0.0	0.6629548497474029	-0.8527745524703296	0.0	0.6619187564269279	-0.8464587216159681	0.0	0.6311923305301053	-0.832475874242501	0.0	0.6602484613459464	-0.5015825922164138	0.0	0.6784693688449482	-0.4356142860269221	0.0	0.6779635765158077	-0.4746204705483448	0.0	0.6153244841854915	-0.5152811357292039	0.0	0.6381510798970511	-0.5836396543853855	0.0	0.7088720531455156	-0.5979875029737318	0.0	0.6908100885445034	-0.5182754400851541	0.0	0.7112993577790904	-0.5816990030101161	0.0	0.7382142051258218	-0.5973435554753211	0.0
125	4.192872117400419	0.6122643891077947	-0.637538985248497	0.0	0.5873479997766489	-0.6444544368114894	0.0	0.6493952841286418	-0.7428288943308267	0.0	0.6072983890228505	-0.8291662871875259	0.0	0.6232169881391394	-0.852076996215785	0.0	0.6043660336346245	-0.8445405406167154	0.0	0.5974792661827072	-0.8309352854705804	0.0	0.6373502448750706	-0.641477634730194	0.0	0.6977734539150489	-0.7319802007491452	0.0	0.6441954479531837	-0.8258146180358223	0.0	0.6601837642133283	-0.8469005671864612	0.0	0.6603141961037954	-0.8406669098378677	0.0	0.6312742612238113	-0.8289029552741448	0.0	0.659729903681279	-0.4880135144112651	0.0	0.6767182566553297	-0.42132296255350643	0.0	0.6770108844783994	-0.4606381999833977	0.0	0.6148568870695391	-0.5028084573557576	0.0	0.6388049097853287	-0.5704924076969421	0.0	0.7097407200650447	-0.5813785748763265	0.0	0.690537667243226	-0.5045049760981314	0.0	0.7079945120158572	-0.5680910066634632	0.0	0.7315839988623551	-0.580810407089091	0.0
126	4.226415094339622	0.6155249318935543	-0.6263388623093921	0.0	0.5911488595761617	-0.6328359750495064	0.0	0.6474513053028412	-0.7368292987770024	0.0	0.6074199003767997	-0.8256709408917157	0.0	0.6232690046087762	-0.8462001753063104	0.0	0.6033698582375463	-0.8400189780493349	0.0	0.597604385169996	-0.829373077542818	0.0	0.6402958521393031	-0.6297563570885089	0.0	0.6964876825816358	-0.7266732806779156	0.0	0.6438570804016619	-0.8223679044121357	0.0	0.6579640600289777	-0.8421045941250584	0.0	0.6594045025925565	-0.836470518046474	0.0	0.6313114126624233	-0.826294775100278	0.0	0.6591883716212391	-0.4734907865599694	0.0	0.6748552747030319	-0.4058439179217924	0.0	0.675881144501672	-0.4455469065199884	0.0	0.6143648433022396	-0.4893898352083958	0.0	0.6383936654927207	-0.5564329838266795	0.0	0.7084175500481823	-0.5652965000573281	0.0	0.6903504111016189	-0.4900980571197977	0.0	0.7050491857385084	-0.5539249496913939	0.0	0.7261496687010899	-0.5660077914291041	0.0
127	4.259958071278826	0.6185267755793558	-0.6143327405756493	0.0	0.5946529686141973	-0.6199378493486758	0.0	0.6452549116092705	-0.7295417074209833	0.0	0.6074840952919947	-0.8220620827520624	0.0	0.6237339548995384	-0.841141941281194	0.0	0.6030444741463054	-0.8369025901540234	0.0	0.5976129428954439	-0.828352326506028	0.0	0.6428698382793366	-0.6170441497038838	0.0	0.6938074617655116	-0.7204566203124398	0.0	0.643333316300446	-0.8185499672296774	0.0	0.6566485806140959	-0.8380978006723149	0.0	0.6594449867682676	-0.8332545190503622	0.0	0.6313390654641184	-0.8240830716072914	0.0	0.6588269341153378	-0.45860882471935466	0.0	0.673158780764214	-0.3898256520080835	0.0	0.6747284208897784	-0.4299742918152315	0.0	0.6140532021798125	-0.4755309546207853	0.0	0.6372871944741267	-0.5419505207466592	0.0	0.7058434524206794	-0.5499308219594614	0.0	0.6904235751231472	-0.47565340336162293	0.0	0.7026456412159282	-0.5394955109295841	0.0	0.7218024740987614	-0.5529121915207575	0.0
128	4.293501048218029	0.6212852257847564	-0.6020386862288224	0.0	0.5977305745370673	-0.6062990770159377	0.0	0.6430584596588541	-0.7211277816722251	0.0	0.6074828287004042	-0.8179483041243212	0.0	0.6246051545216211	-0.8363590466392004	0.0	0.6036900680710772	-0.8340821331203738	0.0	0.5974997551917866	-0.8270640547590409	0.0	0.645120547456667	-0.6039242409419402	0.0	0.6901030362096017	-0.7133214139832141	0.0	0.6426592202274696	-0.8138557864708176	0.0	0.6565456450025645	-0.8344386716823022	0.0	0.6604306748267673	-0.8302833325846387	0.0	0.6313837205497068	-0.8214145896984505	0.0	0.6587178133534418	-0.44390258080614403	0.0	0.671812211284794	-0.37393674758618534	0.0	0.6736804722471363	-0.4145496529977608	0.0	0.613952342516279	-0.4616809026966239	0.0	0.6357762322561372	-0.5275137225275157	0.0	0.7028133847074165	-0.5353832509199031	0.0	0.690833699257011	-0.4616279998872493	0.0	0.7009166397643294	-0.5252150996141685	0.0	0.7183078904322753	-0.5413949715262529	0.0
